#!OML:ASF \\sashay\E\basketball\basketball\Project 1\Capture day 1\Session 1\Subject.ASF
:FULLY-SPECIFIED
:DEGREES
165
root -4.58355 13.8502 -1.23577 3.76433 -32.3112 3.96047
lowerback 31.6316 -2.71962 0.0757392
upperback 12.163 -3.6152 2.97111
thorax -3.23681 -2.03486 4.46477
lowerneck -0.502915 -10.0421 -16.7097
upperneck -27.6676 -10.5016 26.9017
head -5.22407 -6.36203 12.4222
rclavicle 2.66371e-014 -3.81667e-014
rhumerus -12.2444 -29.782 -72.7924
rradius 64.8291
rwrist -38.8664
rhand -39.3961 56.4245
rfingers 7.12502
rthumb -12.3856 26.8114
lclavicle 2.66371e-014 -3.81667e-014
lhumerus -41.5652 30.4699 63.4991
lradius 56.0138
lwrist 47.8362
lhand -22.2867 15.7417
lfingers 7.12502
lthumb 4.13193 45.6814
rfemur -53.4477 -28.9957 14.4618
rtibia 73.2194
rfoot -15.4802 -13.0834
rtoes -32.3479
lfemur -10.8266 10.0114 10.1538
ltibia 66.9819
lfoot -2.28839 7.27579
ltoes -40.7089
166
root -5.05679 13.9067 -1.08065 3.64483 -32.0244 3.87614
lowerback 31.3249 -2.32848 -0.0307681
upperback 12.098 -3.16031 2.83142
thorax -3.21587 -1.80611 4.20639
lowerneck 0.0262492 -10.4785 -15.4312
upperneck -27.5684 -11.1156 26.7205
head -5.25832 -6.78789 12.0999
rclavicle -6.83819e-014 7.27552e-014
rhumerus -12.5587 -30.2456 -72.9381
rradius 64.3318
rwrist -38.8116
rhand -39.4552 55.7758
rfingers 7.12502
rthumb -12.4425 26.1662
lclavicle -6.83819e-014 7.27552e-014
lhumerus -41.6247 29.0734 63.8259
lradius 56.3888
lwrist 48.0156
lhand -22.2809 15.7006
lfingers 7.12502
lthumb 4.13755 45.6402
rfemur -51.8985 -29.5501 15.1387
rtibia 74.5629
rfoot -17.2667 -13.7119
rtoes -33.7043
lfemur -13.8206 12.5077 9.73145
ltibia 70.9244
lfoot -3.1547 6.80968
ltoes -41.8977
167
root -5.53308 13.9629 -0.937964 3.41663 -31.6725 3.97249
lowerback 31.0946 -1.83467 -0.52408
upperback 12.0472 -2.67941 2.72289
thorax -3.19124 -1.57741 4.20409
lowerneck 0.605233 -10.9339 -14.3413
upperneck -27.5338 -11.7008 26.8657
head -5.28834 -7.21614 11.9519
rclavicle 1.86858e-014 -3.97569e-016
rhumerus -12.9394 -30.8198 -73.072
rradius 64.2015
rwrist -39.2595
rhand -39.1853 55.2725
rfingers 7.12502
rthumb -12.1823 25.6473
lclavicle 1.86858e-014 -3.97569e-016
lhumerus -41.6973 27.3704 64.2414
lradius 57.0287
lwrist 48.5318
lhand -22.1446 15.9422
lfingers 7.12502
lthumb 4.26913 45.8791
rfemur -50.5144 -30.066 15.5667
rtibia 76.1382
rfoot -18.1967 -13.9465
rtoes -35.692
lfemur -16.9968 15.0952 8.86053
ltibia 74.7378
lfoot -4.11888 5.93308
ltoes -42.4682
168
root -6.00214 14.0229 -0.783022 3.11116 -31.3985 3.92464
lowerback 30.9895 -1.37249 -0.937441
upperback 12.0312 -2.2177 2.60306
thorax -3.18782 -1.35733 4.1565
lowerneck 0.346176 -11.0989 -16.5035
upperneck -25.9908 -11.8476 29.3132
head -4.27641 -7.24765 13.0029
rclavicle 3.37934e-014 -1.23246e-014
rhumerus -13.3365 -31.3293 -73.2464
rradius 64.1644
rwrist -39.8769
rhand -38.9182 54.9143
rfingers 7.12502
rthumb -11.9248 25.2739
lclavicle 3.37934e-014 -1.23246e-014
lhumerus -41.9837 25.5399 64.6057
lradius 57.8158
lwrist 48.8266
lhand -22.061 16.3022
lfingers 7.12502
lthumb 4.34985 46.2375
rfemur -49.0521 -30.5948 15.8663
rtibia 77.8898
rfoot -18.0508 -13.7746
rtoes -38.189
lfemur -20.0359 17.6343 7.72436
ltibia 78.3649
lfoot -5.35577 4.67136
ltoes -42.1777
169
root -6.46293 14.08 -0.632805 2.89758 -30.8638 3.61792
lowerback 30.9998 -1.05043 -1.24733
upperback 12.0268 -1.89053 2.65078
thorax -3.20969 -1.20535 4.28493
lowerneck 1.01462 -11.3011 -16.4851
upperneck -25.6691 -12.1084 30.2451
head -4.12561 -7.48446 13.3377
rclavicle -1.43125e-014 -9.54166e-015
rhumerus -13.6097 -31.6986 -73.4677
rradius 64.3271
rwrist -40.3609
rhand -38.8226 54.5652
rfingers 7.12502
rthumb -11.8326 24.9195
lclavicle -1.43125e-014 -9.54166e-015
lhumerus -42.3935 24.0659 64.8629
lradius 58.3901
lwrist 49.3281
lhand -21.4211 16.333
lfingers 7.12502
lthumb 4.96779 46.2548
rfemur -47.5931 -31.3116 16.153
rtibia 79.8155
rfoot -17.1694 -12.9215
rtoes -40.2308
lfemur -23.3679 20.2845 6.48976
ltibia 81.7847
lfoot -6.2176 3.13275
ltoes -42.0155
